<svg width="24" height="24" viewBox="0 0 24 24" fill="none" xmlns="http://www.w3.org/2000/svg">
<path d="M22.2686 17.9663C22.4355 17.677 22.5388 17.3513 22.5388 17.0583V6.89633C22.5388 6.60421 22.4357 6.27814 22.2686 5.98883L11.8961 11.9776L22.2686 17.9663Z" fill="#00599C"/>
<path d="M12.8175 23.7349L21.6174 18.6548C21.8709 18.5083 22.1015 18.2556 22.2686 17.9663L11.8961 11.9775L1.52246 17.9663C1.68934 18.2556 1.92015 18.5081 2.17365 18.6548L10.9736 23.7349C11.4804 24.0278 12.3105 24.0278 12.8171 23.7349H12.8175Z" fill="#004482"/>
<path d="M22.2687 5.98898C22.1016 5.69911 21.871 5.44636 21.6175 5.30067L12.8174 0.219797C12.3106 -0.0732656 11.4807 -0.0732656 10.9739 0.219797L2.17394 5.30067C1.66694 5.5928 1.25256 6.3113 1.25256 6.8963V17.058C1.25256 17.3509 1.35569 17.6768 1.52275 17.9661L11.896 11.9775L22.2687 5.98898Z" fill="#659AD2"/>
<path d="M11.896 4.88157C7.98342 4.88157 4.80042 8.06475 4.80042 11.9773C4.80042 15.8899 7.98342 19.0731 11.896 19.0731C14.4207 19.0731 16.7755 17.7143 18.0404 15.5274L14.97 13.7503C14.3363 14.8453 13.1588 15.525 11.896 15.525C9.93979 15.525 8.3481 13.9335 8.3481 11.9771C8.3481 10.0208 9.93998 8.42925 11.896 8.42925C13.1579 8.42925 14.3367 9.10969 14.9691 10.2039L18.0404 8.427C16.7747 6.24 14.4207 4.88157 11.896 4.88157ZM17.415 10.7944V11.5832H16.6262V12.3713H17.415V13.1601H18.2031V12.3713H18.9912V11.5832H18.2031V10.7944H17.415ZM20.3712 10.7944V11.5832H19.5829V12.3713H20.3712V13.1601H21.16V12.3713H21.948V11.5832H21.16V10.7944H20.3712Z" fill="white"/>
</svg>
