<svg width="107" height="106" viewBox="0 0 107 106" fill="none" xmlns="http://www.w3.org/2000/svg">
<g clip-path="url(#clip0_549_1450)" filter="url(#filter0_dd_549_1450)">
<path d="M80.8118 40.7155L67.7626 63.3286C67.6397 63.5418 67.4629 63.7188 67.2499 63.8417C67.0368 63.9647 66.7951 64.0293 66.5491 64.029H40.4498C40.2039 64.0292 39.9623 63.9645 39.7494 63.8415C39.5365 63.7186 39.3598 63.5417 39.237 63.3286L38.199 61.5289C40.1401 61.2908 42.0558 60.8785 43.9229 60.2969H64.8874C65.0829 60.2969 65.2638 60.1925 65.3616 60.0224L76.7499 40.2883C76.7979 40.205 76.8232 40.1106 76.8232 40.0145C76.8232 39.9184 76.7979 39.824 76.7499 39.7407L66.1434 21.3623C65.714 19.5273 65.1259 17.733 64.386 15.9996L66.5492 15.9996C67.0502 15.9996 67.5121 16.2673 67.7627 16.7012L80.8118 39.3145C80.9349 39.5274 80.9997 39.7691 80.9997 40.015C80.9997 40.261 80.9349 40.5025 80.8118 40.7155Z" fill="#5B5C6C"/>
<path d="M67.01 28.8945C67.01 43.6473 57.2992 56.1318 43.9231 60.2968C42.0559 60.8784 40.1402 61.2907 38.1991 61.5289L26.188 40.7154C26.0649 40.5026 26.0001 40.261 26.0001 40.0151C26.0001 39.7692 26.0649 39.5276 26.188 39.3148L39.2373 16.7012C39.3601 16.4881 39.5368 16.3111 39.7496 16.1879C39.9625 16.0648 40.2041 15.9998 40.45 15.9996H64.3862C65.1261 17.7329 65.7141 19.5273 66.1436 21.3623C66.71 23.7815 67.01 26.303 67.01 28.8945Z" fill="#707384"/>
<path d="M76.7501 40.2882L65.3616 60.0225C65.3136 60.1058 65.2446 60.1751 65.1613 60.2233C65.0781 60.2714 64.9836 60.2968 64.8874 60.2968H43.923C57.2991 56.1318 67.0099 43.6473 67.0099 28.8944C67.0099 26.3029 66.7098 23.7813 66.1433 21.3623L76.7499 39.7407C76.7979 39.8239 76.8232 39.9183 76.8232 40.0145C76.8232 40.1106 76.7979 40.205 76.7499 40.2882H76.7501Z" fill="#464655"/>
<path d="M67.01 28.8946C67.01 43.6474 57.2991 56.1318 43.9231 60.2969H42.1115C42.0153 60.2968 41.9208 60.2715 41.8376 60.2233C41.7543 60.1751 41.6853 60.1058 41.6373 60.0224L30.2502 40.2884C30.2022 40.2051 30.1769 40.1107 30.1769 40.0146C30.1769 39.9185 30.2022 39.8241 30.2502 39.7408L41.6373 20.0074C41.6853 19.9241 41.7544 19.8549 41.8377 19.8068C41.9209 19.7586 42.0153 19.7332 42.1115 19.7331H64.8875C65.083 19.7331 65.2639 19.8376 65.3617 20.0076L66.1434 21.3625C66.7099 23.7816 67.01 26.303 67.01 28.8946Z" fill="#5B5C6C"/>
<path d="M68.9711 70.1046H38.0282C36.9283 70.1046 36.0366 69.213 36.0366 68.113V56.1485C36.0366 55.0487 36.9283 54.1569 38.0282 54.1569H68.9711C70.0714 54.1569 70.963 55.0487 70.963 56.1485V68.1126C70.963 69.2129 70.0714 70.1046 68.9711 70.1046Z" fill="#C3B4FA"/>
<path d="M68.9715 54.1569H65.7863C66.886 54.1569 67.7773 55.0487 67.7773 56.149V68.1121C67.7773 69.2123 66.886 70.1045 65.7863 70.1045H68.9715C70.0714 70.1045 70.9631 69.2123 70.9631 68.1121V56.1494C70.9631 55.0487 70.0714 54.157 68.9715 54.157V54.1569Z" fill="#A09BFF"/>
<path d="M39.8129 66.3276V58.1396C39.8129 58.0053 39.8632 57.8874 39.9639 57.7867C40.0651 57.686 40.1909 57.6357 40.342 57.6357H42.835C44.8244 57.6357 45.8193 58.5131 45.8193 60.2683C45.8193 60.9573 45.6703 61.5116 45.3724 61.9312C45.0744 62.3513 44.6733 62.6366 44.1698 62.7881L45.8193 65.8492C45.8611 65.8995 45.8822 65.9666 45.8822 66.0507C45.8822 66.2609 45.7731 66.456 45.5549 66.6364C45.3363 66.8169 45.1054 66.9071 44.862 66.9071C44.6186 66.9071 44.4299 66.7769 44.2956 66.5169L42.5077 63.0398H41.4498V66.3276C41.4498 66.4874 41.3701 66.6133 41.2106 66.7057C41.0511 66.7984 40.8581 66.8441 40.6315 66.8441C40.4129 66.8441 40.2224 66.7984 40.0583 66.7056C39.895 66.6133 39.8129 66.4875 39.8129 66.3275V66.3276ZM41.4498 61.755H42.835C43.7333 61.755 44.1824 61.3098 44.1824 60.4194C44.1824 59.521 43.7333 59.0716 42.835 59.0716H41.4498V61.755ZM46.4863 64.3751V63.3042C46.4863 62.6161 46.7549 62.0235 47.2925 61.528C47.8297 61.0328 48.4801 60.7848 49.2442 60.7848C49.9575 60.7848 50.5681 61.0106 51.0762 61.4621C51.5839 61.9133 51.8378 62.4805 51.8378 63.1641C51.8378 63.4138 51.8063 63.6194 51.7434 63.7814C51.6805 63.9437 51.5839 64.0579 51.4539 64.1246C51.3238 64.1913 51.2038 64.2329 51.0951 64.2496C50.986 64.2659 50.8434 64.2743 50.6671 64.2743H48.1108V64.4636C48.1108 64.8245 48.2451 65.1165 48.5136 65.339C48.7822 65.5613 49.1392 65.6725 49.5841 65.6725C49.903 65.6725 50.2176 65.5928 50.5282 65.4334C50.8386 65.2739 51.0402 65.1942 51.1329 65.1942C51.309 65.1942 51.456 65.276 51.5734 65.4396C51.6909 65.6033 51.7497 65.7606 51.7497 65.9122C51.7497 66.1471 51.5378 66.3804 51.114 66.6112C50.6897 66.8425 50.1632 66.9574 49.5338 66.9574C48.6353 66.9574 47.9031 66.7203 47.3366 66.2457C46.7697 65.7716 46.4863 65.148 46.4863 64.3751ZM48.1108 63.3168H49.9491C50.0834 63.3168 50.1779 63.2954 50.2327 63.2522C50.2869 63.209 50.3146 63.1246 50.3146 62.9991C50.3146 62.7248 50.2077 62.5011 49.9936 62.3286C49.7795 62.1561 49.5169 62.0697 49.2064 62.0697C48.9127 62.0697 48.6567 62.1546 48.4385 62.3228C48.2199 62.4914 48.1108 62.7129 48.1108 62.9874V63.3168ZM52.455 65.2303C52.455 64.569 52.7068 64.1041 53.2104 63.8342C53.7139 63.5652 54.4399 63.4305 55.3886 63.4305H55.9052V63.2619C55.9052 62.9425 55.8145 62.6639 55.6341 62.4263C55.4536 62.1885 55.1746 62.0697 54.7969 62.0697C54.4192 62.0697 54.0958 62.1415 53.8272 62.2841C53.5587 62.4268 53.4035 62.4981 53.3615 62.4981C53.1936 62.4981 53.0593 62.4143 52.9586 62.246C52.8579 62.0781 52.8076 61.8934 52.8076 61.692C52.8076 61.4482 53.0232 61.2363 53.4559 61.0555C53.888 60.8751 54.3434 60.7848 54.8222 60.7848C55.7369 60.7848 56.4166 61.0182 56.8619 61.4839C57.3066 61.9501 57.529 62.5359 57.529 63.2414V66.3276C57.529 66.4707 57.4536 66.5924 57.3024 66.693C57.1513 66.7937 56.9626 66.8441 56.7356 66.8441C56.5258 66.8441 56.3516 66.7904 56.2132 66.6826C56.0746 66.5748 56.0054 66.4447 56.0054 66.2924V65.9017C55.4264 66.6058 54.7881 66.9578 54.0916 66.9578C53.6132 66.9578 53.2204 66.8106 52.9141 66.5163C52.6078 66.2218 52.455 65.7934 52.455 65.2303ZM54.079 65.0272C54.079 65.2428 54.1398 65.404 54.2615 65.5114C54.3832 65.6192 54.5451 65.6725 54.7466 65.6725C55.0151 65.6725 55.2753 65.5533 55.5271 65.3142C55.7789 65.0755 55.9052 64.8123 55.9052 64.5253V64.2744H55.7159C55.204 64.2744 54.8033 64.3243 54.5137 64.4237C54.2237 64.5237 54.079 64.7245 54.079 65.0271V65.0272ZM58.5366 64.3751V63.3676C58.5366 62.5947 58.7633 61.9711 59.2164 61.4965C59.6696 61.0223 60.3497 60.7848 61.2561 60.7848C61.8268 60.7848 62.3056 60.8856 62.6916 61.0874C63.0777 61.2889 63.2707 61.5154 63.2707 61.7676C63.2707 61.9438 63.2077 62.12 63.0818 62.2963C62.9559 62.473 62.8049 62.5611 62.6286 62.5611C62.5784 62.5611 62.4294 62.5044 62.1818 62.3911C61.9343 62.2775 61.6673 62.2212 61.382 62.2212C60.568 62.2212 60.1609 62.6043 60.1609 63.3709V64.3713C60.1609 65.1383 60.5721 65.5215 61.3946 65.5215C61.6799 65.5215 61.9442 65.4607 62.1881 65.3389C62.4315 65.2173 62.5866 65.156 62.6539 65.156C62.8553 65.156 63.021 65.2404 63.1516 65.4082C63.2815 65.5761 63.3466 65.748 63.3466 65.9248C63.3466 66.1849 63.1427 66.4224 62.7357 66.6364C62.3286 66.8504 61.8398 66.9574 61.2687 66.9574C60.354 66.9574 59.6699 66.7225 59.2164 66.2521C58.7632 65.7821 58.5366 65.1564 58.5366 64.3751ZM64.1901 64.8274V58.7887C64.1901 58.6478 64.2736 58.5294 64.4418 58.4337C64.6093 58.3385 64.7944 58.2906 64.9958 58.2906C65.2138 58.2906 65.4048 58.3372 65.5686 58.4299C65.7322 58.5231 65.814 58.6381 65.814 58.7753V60.8603H67.2999C67.4258 60.8603 67.5265 60.9246 67.6019 61.0521C67.6774 61.1796 67.7153 61.3299 67.7153 61.5028C67.7153 61.6761 67.6775 61.8263 67.6019 61.9539C67.5264 62.0815 67.4258 62.1452 67.2999 62.1452H65.814V64.7724C65.814 65.0041 65.8664 65.1682 65.9718 65.2642C66.0762 65.3604 66.2592 65.4082 66.5193 65.4082H67.0103C67.2285 65.4082 67.3985 65.4783 67.5205 65.6188C67.6419 65.7594 67.7027 65.9264 67.7027 66.1198C67.7027 66.3218 67.6418 66.4929 67.5206 66.6334C67.3985 66.7741 67.2284 66.8441 67.0104 66.8441H66.5195C64.9663 66.8441 64.1901 66.1719 64.1901 64.8274Z" fill="#8080E5"/>
<path d="M55.3155 37.4752C55.3155 36.4723 54.5023 35.6587 53.4998 35.6587C52.497 35.6587 51.6842 36.4723 51.6842 37.4752C51.6842 38.4785 52.497 39.2917 53.4998 39.2917C54.5023 39.2917 55.3155 38.4785 55.3155 37.4752Z" fill="#A0DCF0"/>
<path d="M58.7255 49.9777C57.4112 49.9777 55.8745 49.344 54.2402 48.1045C52.017 46.4194 49.801 43.7728 48.0005 40.6521C46.1994 37.5315 45.0165 34.2878 44.6691 31.5191C44.2907 28.5016 44.9557 26.3348 46.5422 25.4184C48.1284 24.5019 50.3364 25.0092 52.7593 26.8459C54.9825 28.5315 57.1985 31.178 58.999 34.2987C60.8 37.4193 61.9829 40.6626 62.3303 43.4312C62.7092 46.4491 62.0437 48.616 60.4577 49.532C59.9415 49.8304 59.359 49.9777 58.7255 49.9777ZM48.2895 26.6575C47.9463 26.6575 47.6421 26.7305 47.3848 26.879C46.437 27.4262 46.0568 29.0409 46.3412 31.3094C46.6614 33.8598 47.7689 36.8785 49.4599 39.8086C51.1509 42.7393 53.2104 45.2079 55.2581 46.7604C57.0792 48.141 58.6671 48.6189 59.6146 48.0717C60.5625 47.5242 60.9427 45.9095 60.6582 43.6414C60.3381 41.0906 59.2306 38.0724 57.5395 35.1417C55.8485 32.2115 53.7894 29.7425 51.7413 28.1899C50.4145 27.1841 49.2116 26.6575 48.2895 26.6575Z" fill="#54A1FF"/>
<path d="M48.2741 49.9778C47.6404 49.9778 47.0584 49.8305 46.5422 49.5321C44.9556 48.6161 44.2907 46.4492 44.6691 43.4313C45.0165 40.6627 46.1994 37.4194 48.0005 34.2988C49.801 31.1781 52.017 28.5315 54.2402 26.8459C56.663 25.0094 58.871 24.502 60.4577 25.4184C62.0437 26.3347 62.7092 28.5018 62.3303 31.5192C61.9829 34.2878 60.8 37.5314 58.999 40.6523C57.1985 43.7724 54.9825 46.4194 52.7593 48.1045C51.125 49.3437 49.5882 49.9778 48.2741 49.9778ZM58.7099 26.6575C57.788 26.6575 56.5854 27.1841 55.2581 28.1899C53.2104 29.7426 51.151 32.2116 49.4603 35.1417C47.7692 38.0724 46.6615 41.0908 46.3417 43.6415C46.0568 45.9096 46.4373 47.5243 47.3849 48.0719C48.3327 48.6194 49.9207 48.1411 51.7418 46.7605C53.7894 45.2079 55.8485 42.7394 57.5395 39.8088C59.2307 36.8785 60.338 33.8603 60.6582 31.3095C60.9427 29.0409 60.5626 27.4263 59.6146 26.8791C59.3579 26.7306 59.0531 26.6575 58.7099 26.6575Z" fill="#54A1FF"/>
<path d="M53.5 43.8287C49.8984 43.8287 46.4991 43.2319 43.9289 42.1485C41.1271 40.9677 39.5842 39.308 39.5842 37.4752C39.5842 35.6424 41.1271 33.9831 43.9289 32.8019C46.4991 31.7189 49.8983 31.1222 53.5 31.1222C57.1016 31.1222 60.5005 31.7189 63.0711 32.8019C65.8724 33.9831 67.4153 35.6423 67.4153 37.4752C67.4153 39.3081 65.8724 40.9677 63.0711 42.1485C60.5005 43.2319 57.1016 43.8287 53.5 43.8287ZM53.5 32.8087C46.2926 32.8087 41.2698 35.268 41.2698 37.4752C41.2698 39.6827 46.2926 42.1421 53.5 42.1421C60.7069 42.1421 65.7297 39.6828 65.7297 37.4752C65.7297 35.268 60.7069 32.8087 53.5 32.8087Z" fill="#54A1FF"/>
</g>
<defs>
<filter id="filter0_dd_549_1450" x="0.390519" y="0.146082" width="106.219" height="106.219" filterUnits="userSpaceOnUse" color-interpolation-filters="sRGB">
<feFlood flood-opacity="0" result="BackgroundImageFix"/>
<feColorMatrix in="SourceAlpha" type="matrix" values="0 0 0 0 0 0 0 0 0 0 0 0 0 0 0 0 0 0 127 0" result="hardAlpha"/>
<feMorphology radius="3.6585" operator="erode" in="SourceAlpha" result="effect1_dropShadow_549_1450"/>
<feOffset dy="9.75599"/>
<feGaussianBlur stdDeviation="14.634"/>
<feColorMatrix type="matrix" values="0 0 0 0 0.0627451 0 0 0 0 0.0941176 0 0 0 0 0.156863 0 0 0 0.1 0"/>
<feBlend mode="normal" in2="BackgroundImageFix" result="effect1_dropShadow_549_1450"/>
<feColorMatrix in="SourceAlpha" type="matrix" values="0 0 0 0 0 0 0 0 0 0 0 0 0 0 0 0 0 0 127 0" result="hardAlpha"/>
<feMorphology radius="3.6585" operator="erode" in="SourceAlpha" result="effect2_dropShadow_549_1450"/>
<feOffset dy="9.75599"/>
<feGaussianBlur stdDeviation="14.634"/>
<feColorMatrix type="matrix" values="0 0 0 0 0.0627451 0 0 0 0 0.0941176 0 0 0 0 0.156863 0 0 0 0.05 0"/>
<feBlend mode="normal" in2="effect1_dropShadow_549_1450" result="effect2_dropShadow_549_1450"/>
<feBlend mode="normal" in="SourceGraphic" in2="effect2_dropShadow_549_1450" result="shape"/>
</filter>
<clipPath id="clip0_549_1450">
<rect width="55" height="55" fill="white" transform="translate(26 15.9996)"/>
</clipPath>
</defs>
</svg>
