<svg width="55" height="55" viewBox="0 0 55 55" fill="none" xmlns="http://www.w3.org/2000/svg">
<g clip-path="url(#clip0_549_1504)">
<path d="M27.5 54.9996C42.6878 54.9996 55 42.6874 55 27.4996C55 12.3117 42.6878 -0.000427246 27.5 -0.000427246C12.3122 -0.000427246 0 12.3117 0 27.4996C0 42.6874 12.3122 54.9996 27.5 54.9996Z" fill="#27273D"/>
<path d="M6.34435 19.1948H22.2997V34.8612H6.34435V19.1948Z" fill="#27273D"/>
<path d="M22.9485 17.0098H5.69659C5.20061 17.0098 4.79854 17.4119 4.79854 17.9079V22.3422C4.79854 22.8382 5.20061 23.2403 5.69659 23.2403H22.9485C23.4445 23.2403 23.8466 22.8382 23.8466 22.3422V17.9079C23.8466 17.4119 23.4445 17.0098 22.9485 17.0098Z" fill="#4F4F74"/>
<path d="M23.8477 21.991V22.3433C23.8477 22.5818 23.7529 22.8105 23.5843 22.9791C23.4157 23.1477 23.187 23.2424 22.9485 23.2424H5.69336C5.45556 23.2416 5.2278 23.1465 5.06005 22.9779C4.8923 22.8093 4.79825 22.5811 4.79854 22.3433V17.9079C4.79854 17.6703 4.89271 17.4423 5.06043 17.274C5.22815 17.1057 5.45575 17.0107 5.69336 17.0098H6.24551V21.0919C6.24551 21.2099 6.26877 21.3268 6.31395 21.4359C6.35914 21.545 6.42537 21.6441 6.50886 21.7276C6.59235 21.8111 6.69147 21.8774 6.80055 21.9225C6.90964 21.9677 7.02656 21.991 7.14463 21.991H23.8477Z" fill="#3E436D"/>
<path d="M7.47657 19.3591H6.5001C6.34644 19.3591 6.22188 19.4837 6.22188 19.6374V20.6138C6.22188 20.7675 6.34644 20.8921 6.5001 20.8921H7.47657C7.63022 20.8921 7.75479 20.7675 7.75479 20.6138V19.6374C7.75479 19.4837 7.63022 19.3591 7.47657 19.3591Z" fill="#F6D372"/>
<path d="M9.47354 19.3591H8.49708C8.34342 19.3591 8.21886 19.4837 8.21886 19.6374V20.6138C8.21886 20.7675 8.34342 20.8921 8.49708 20.8921H9.47354C9.6272 20.8921 9.75177 20.7675 9.75177 20.6138V19.6374C9.75177 19.4837 9.6272 19.3591 9.47354 19.3591Z" fill="#F6C752"/>
<path d="M11.4716 19.3591H10.4951C10.3415 19.3591 10.2169 19.4837 10.2169 19.6374V20.6138C10.2169 20.7675 10.3415 20.8921 10.4951 20.8921H11.4716C11.6252 20.8921 11.7498 20.7675 11.7498 20.6138V19.6374C11.7498 19.4837 11.6252 19.3591 11.4716 19.3591Z" fill="#F7BB38"/>
<path d="M21.7669 17.7167H14.459C14.2324 17.7167 14.0486 17.9004 14.0486 18.127V18.4622C14.0486 18.6888 14.2324 18.8725 14.459 18.8725H21.7669C21.9935 18.8725 22.1772 18.6888 22.1772 18.4622V18.127C22.1772 17.9004 21.9935 17.7167 21.7669 17.7167Z" fill="#32314B"/>
<path d="M21.7669 19.5471H14.459C14.2324 19.5471 14.0486 19.7309 14.0486 19.9575V20.2927C14.0486 20.5193 14.2324 20.703 14.459 20.703H21.7669C21.9935 20.703 22.1772 20.5193 22.1772 20.2927V19.9575C22.1772 19.7309 21.9935 19.5471 21.7669 19.5471Z" fill="#32314B"/>
<path d="M21.7669 21.3776H14.459C14.2324 21.3776 14.0486 21.5613 14.0486 21.788V22.1231C14.0486 22.3498 14.2324 22.5335 14.459 22.5335H21.7669C21.9935 22.5335 22.1772 22.3498 22.1772 22.1231V21.788C22.1772 21.5613 21.9935 21.3776 21.7669 21.3776Z" fill="#32314B"/>
<path d="M22.9485 24.0889H5.69659C5.20061 24.0889 4.79854 24.491 4.79854 24.987V29.4213C4.79854 29.9173 5.20061 30.3194 5.69659 30.3194H22.9485C23.4445 30.3194 23.8466 29.9173 23.8466 29.4213V24.987C23.8466 24.491 23.4445 24.0889 22.9485 24.0889Z" fill="#4F4F74"/>
<path d="M23.8477 29.0701V29.4213C23.8477 29.5394 23.8244 29.6562 23.7792 29.7653C23.734 29.8743 23.6678 29.9733 23.5843 30.0567C23.5007 30.1401 23.4016 30.2063 23.2925 30.2513C23.1835 30.2964 23.0666 30.3195 22.9485 30.3194H5.69337C5.45519 30.3194 5.22677 30.2248 5.05835 30.0564C4.88993 29.8879 4.79532 29.6595 4.79532 29.4213V24.987C4.79532 24.7488 4.88993 24.5204 5.05835 24.3519C5.22677 24.1835 5.45519 24.0889 5.69337 24.0889H6.24551V28.1709C6.24551 28.289 6.26877 28.4059 6.31396 28.515C6.35914 28.6241 6.42537 28.7232 6.50886 28.8067C6.59235 28.8902 6.69147 28.9564 6.80056 29.0016C6.90964 29.0468 7.02656 29.0701 7.14464 29.0701H23.8477Z" fill="#3E436D"/>
<path d="M7.47657 26.4382H6.5001C6.34644 26.4382 6.22188 26.5628 6.22188 26.7165V27.6929C6.22188 27.8466 6.34644 27.9711 6.5001 27.9711H7.47657C7.63022 27.9711 7.75479 27.8466 7.75479 27.6929V26.7165C7.75479 26.5628 7.63022 26.4382 7.47657 26.4382Z" fill="#4ACC97"/>
<path d="M9.47354 26.4382H8.49708C8.34342 26.4382 8.21886 26.5628 8.21886 26.7165V27.6929C8.21886 27.8466 8.34342 27.9711 8.49708 27.9711H9.47354C9.6272 27.9711 9.75177 27.8466 9.75177 27.6929V26.7165C9.75177 26.5628 9.6272 26.4382 9.47354 26.4382Z" fill="#38C487"/>
<path d="M11.4716 26.4382H10.4951C10.3415 26.4382 10.2169 26.5628 10.2169 26.7165V27.6929C10.2169 27.8466 10.3415 27.9711 10.4951 27.9711H11.4716C11.6252 27.9711 11.7498 27.8466 11.7498 27.6929V26.7165C11.7498 26.5628 11.6252 26.4382 11.4716 26.4382Z" fill="#00B564"/>
<path d="M21.7669 24.7957H14.459C14.2324 24.7957 14.0486 24.9795 14.0486 25.2061V25.5413C14.0486 25.7679 14.2324 25.9516 14.459 25.9516H21.7669C21.9935 25.9516 22.1772 25.7679 22.1772 25.5413V25.2061C22.1772 24.9795 21.9935 24.7957 21.7669 24.7957Z" fill="#32314B"/>
<path d="M21.7669 26.6262H14.459C14.2324 26.6262 14.0486 26.8099 14.0486 27.0366V27.3717C14.0486 27.5984 14.2324 27.7821 14.459 27.7821H21.7669C21.9935 27.7821 22.1772 27.5984 22.1772 27.3717V27.0366C22.1772 26.8099 21.9935 26.6262 21.7669 26.6262Z" fill="#32314B"/>
<path d="M21.7669 28.4567H14.459C14.2324 28.4567 14.0486 28.6404 14.0486 28.867V29.2022C14.0486 29.4288 14.2324 29.6126 14.459 29.6126H21.7669C21.9935 29.6126 22.1772 29.4288 22.1772 29.2022V28.867C22.1772 28.6404 21.9935 28.4567 21.7669 28.4567Z" fill="#32314B"/>
<path d="M22.9485 31.168H5.69659C5.20061 31.168 4.79854 31.5701 4.79854 32.066V36.5004C4.79854 36.9964 5.20061 37.3985 5.69659 37.3985H22.9485C23.4445 37.3985 23.8466 36.9964 23.8466 36.5004V32.066C23.8466 31.5701 23.4445 31.168 22.9485 31.168Z" fill="#4F4F74"/>
<path d="M23.8477 36.1492V36.5004C23.8477 36.6184 23.8244 36.7353 23.7792 36.8443C23.734 36.9534 23.6678 37.0524 23.5843 37.1358C23.5007 37.2192 23.4016 37.2853 23.2925 37.3304C23.1835 37.3755 23.0666 37.3986 22.9485 37.3985H5.69337C5.45519 37.3985 5.22677 37.3039 5.05835 37.1354C4.88993 36.967 4.79532 36.7386 4.79532 36.5004V32.066C4.79532 31.9481 4.81855 31.8313 4.86368 31.7224C4.90881 31.6134 4.97496 31.5144 5.05835 31.431C5.14174 31.3476 5.24074 31.2815 5.3497 31.2364C5.45865 31.1912 5.57543 31.168 5.69337 31.168H6.24551V35.25C6.24551 35.3681 6.26877 35.485 6.31396 35.5941C6.35914 35.7032 6.42537 35.8023 6.50886 35.8858C6.59235 35.9693 6.69147 36.0355 6.80056 36.0807C6.90964 36.1259 7.02656 36.1492 7.14464 36.1492H23.8477Z" fill="#3E436D"/>
<path d="M7.47657 33.5173H6.5001C6.34644 33.5173 6.22188 33.6419 6.22188 33.7956V34.772C6.22188 34.9257 6.34644 35.0502 6.5001 35.0502H7.47657C7.63022 35.0502 7.75479 34.9257 7.75479 34.772V33.7956C7.75479 33.6419 7.63022 33.5173 7.47657 33.5173Z" fill="#7CC8FB"/>
<path d="M9.47354 33.5173H8.49708C8.34342 33.5173 8.21886 33.6419 8.21886 33.7956V34.772C8.21886 34.9257 8.34342 35.0502 8.49708 35.0502H9.47354C9.6272 35.0502 9.75177 34.9257 9.75177 34.772V33.7956C9.75177 33.6419 9.6272 33.5173 9.47354 33.5173Z" fill="#41C0E3"/>
<path d="M11.4716 33.5173H10.4951C10.3415 33.5173 10.2169 33.6419 10.2169 33.7956V34.772C10.2169 34.9257 10.3415 35.0502 10.4951 35.0502H11.4716C11.6252 35.0502 11.7498 34.9257 11.7498 34.772V33.7956C11.7498 33.6419 11.6252 33.5173 11.4716 33.5173Z" fill="#3586CB"/>
<path d="M21.7669 31.8748H14.459C14.2324 31.8748 14.0486 32.0586 14.0486 32.2852V32.6204C14.0486 32.847 14.2324 33.0307 14.459 33.0307H21.7669C21.9935 33.0307 22.1772 32.847 22.1772 32.6204V32.2852C22.1772 32.0586 21.9935 31.8748 21.7669 31.8748Z" fill="#32314B"/>
<path d="M21.7669 33.7053H14.459C14.2324 33.7053 14.0486 33.889 14.0486 34.1157V34.4508C14.0486 34.6775 14.2324 34.8612 14.459 34.8612H21.7669C21.9935 34.8612 22.1772 34.6775 22.1772 34.4508V34.1157C22.1772 33.889 21.9935 33.7053 21.7669 33.7053Z" fill="#32314B"/>
<path d="M21.7669 35.5358H14.459C14.2324 35.5358 14.0486 35.7195 14.0486 35.9461V36.2813C14.0486 36.5079 14.2324 36.6917 14.459 36.6917H21.7669C21.9935 36.6917 22.1772 36.5079 22.1772 36.2813V35.9461C22.1772 35.7195 21.9935 35.5358 21.7669 35.5358Z" fill="#32314B"/>
<path d="M49.9791 21.4635C49.3851 20.4022 47.7694 20.1132 45.3084 20.6278C43.0837 21.0929 40.3939 22.1682 37.7352 23.6571C35.0765 25.1459 32.7519 26.8797 31.191 28.5276C29.4658 30.3537 28.8675 31.8834 29.4615 32.9448C29.8644 33.6645 30.7356 34.0297 32.0225 34.0297C32.732 34.0186 33.4385 33.9355 34.1312 33.7816C36.3559 33.3154 39.0457 32.2401 41.7055 30.7512C44.3652 29.2623 46.6888 27.5339 48.2485 25.8807C49.9748 24.0524 50.5731 22.5248 49.9791 21.4635ZM41.1705 29.793C38.6064 31.2282 36.0272 32.2637 33.9088 32.7052C31.7174 33.1639 30.6711 32.8524 30.4219 32.4087C30.1727 31.9651 30.4552 30.9102 31.9924 29.2817C33.478 27.7079 35.7092 26.0504 38.2733 24.6153C42.248 22.3927 45.5608 21.4786 47.4364 21.4786C48.2818 21.4786 48.8329 21.6644 49.022 22.0006C49.6289 23.0813 46.9305 26.5682 41.1684 29.793H41.1705Z" fill="#366FCA"/>
<path d="M47.4182 34.0297C46.7083 34.0186 46.0014 33.9355 45.3084 33.7816C43.0837 33.3154 40.3939 32.2401 37.7352 30.7512C35.0765 29.2623 32.7519 27.5339 31.191 25.8807C29.4658 24.0545 28.8675 22.5248 29.4615 21.4635C30.0556 20.4022 31.6701 20.1132 34.1312 20.6278C36.3559 21.0929 39.0457 22.1682 41.7055 23.6571C44.3652 25.1459 46.6888 26.8797 48.2485 28.5276C49.9748 30.3537 50.5731 31.8834 49.9791 32.9448C49.5763 33.6645 48.704 34.0297 47.4182 34.0297ZM32.0117 21.4839C31.1663 21.4839 30.6152 21.6698 30.4251 22.006C29.8203 23.0867 32.5145 26.5736 38.2766 29.7984C40.8418 31.2335 43.421 32.2691 45.5394 32.7106C47.7308 33.1693 48.7771 32.8577 49.0252 32.4141C49.2733 31.9704 48.9919 30.9156 47.4547 29.287C45.969 27.7133 43.739 26.0558 41.1737 24.6206C37.197 22.3927 33.8809 21.4839 32.0117 21.4839Z" fill="#41C0E3"/>
<path d="M39.7203 38.9604C38.5032 38.9604 37.4645 37.6917 36.7125 35.293C36.0315 33.1241 35.6576 30.2517 35.6576 27.2041C35.6576 24.1566 36.0315 21.2841 36.7125 19.1153C37.4645 16.7165 38.5054 15.4489 39.7203 15.4489C40.9353 15.4489 41.9762 16.7165 42.7281 19.1153C43.4081 21.2841 43.783 24.1566 43.783 27.2041C43.783 30.2517 43.4081 33.1241 42.7281 35.293C41.9773 37.6917 40.9363 38.9604 39.7203 38.9604ZM39.7203 16.5468C38.4817 16.5468 36.7533 20.602 36.7533 27.2041C36.7533 33.8063 38.4817 37.8614 39.7203 37.8614C40.9589 37.8614 42.6862 33.8073 42.6862 27.2041C42.6862 20.6009 40.9589 16.5425 39.7203 16.5425V16.5468Z" fill="#3586CB"/>
<path d="M36.0132 32.1187H36.0046C35.6465 32.239 35.297 32.3464 34.9562 32.441C35.0163 32.8127 35.084 33.1747 35.157 33.5249C35.4943 33.4325 35.8395 33.3283 36.1926 33.2123L36.2108 33.2069C36.1389 32.8707 36.0733 32.5033 36.0132 32.1187ZM34.5898 25.6401C34.5705 26.0956 34.5594 26.5568 34.5565 27.0237C34.9121 26.7551 35.2838 26.4866 35.6684 26.2255C35.6684 26.1009 35.6748 25.9774 35.6802 25.8539C35.6856 25.7303 35.6899 25.6068 35.6952 25.4854C35.6952 25.4145 35.7017 25.3436 35.706 25.2706L35.7156 25.1127C35.7156 25.0289 35.7253 24.9462 35.7307 24.8624C35.3418 25.1191 34.9572 25.378 34.5898 25.6401Z" fill="#2C61AF"/>
<path d="M35.7156 29.2946L35.706 29.1356C35.706 29.0657 35.6984 28.9938 35.6952 28.9207C35.6899 28.7993 35.6845 28.6769 35.6802 28.5523L35.6737 28.3686V28.1838C35.2813 27.916 34.9107 27.6499 34.5619 27.3857C34.5619 27.8519 34.573 28.3124 34.5952 28.7671C34.9626 29.0281 35.3472 29.287 35.736 29.5416C35.7253 29.4611 35.7199 29.3773 35.7156 29.2946ZM36.1926 21.1885C35.8402 21.0725 35.4951 20.9683 35.157 20.8759C35.084 21.2261 35.0163 21.5881 34.9562 21.9587C35.2913 22.0522 35.6404 22.1585 36.0046 22.281H36.0143C36.0733 21.9007 36.1399 21.5365 36.2108 21.1917L36.1926 21.1885Z" fill="#39AEC9"/>
<path d="M36.0046 22.281H36.0143C36.0733 21.9007 36.1399 21.5366 36.2108 21.1918L36.1926 21.1853C36.1238 21.542 36.0605 21.9072 36.0046 22.281ZM36.0132 32.123H36.0046C36.0605 32.4979 36.1238 32.8632 36.1926 33.2176L36.2108 33.2123C36.1389 32.8707 36.0733 32.5033 36.0132 32.1187V32.123Z" fill="#3586CB"/>
<path d="M39.7182 29.0808C40.7546 29.0808 41.5948 28.2406 41.5948 27.2041C41.5948 26.1677 40.7546 25.3275 39.7182 25.3275C38.6817 25.3275 37.8415 26.1677 37.8415 27.2041C37.8415 28.2406 38.6817 29.0808 39.7182 29.0808Z" fill="#FC4581"/>
<path d="M40.0598 29.0497C39.803 29.0979 39.5389 29.0919 39.2845 29.0322C39.0301 28.9725 38.791 28.8603 38.5825 28.7028C38.374 28.5453 38.2007 28.346 38.0736 28.1177C37.9466 27.8893 37.8686 27.637 37.8447 27.3768C37.8208 27.1166 37.8515 26.8542 37.9349 26.6066C38.0182 26.3589 38.1524 26.1314 38.3288 25.9386C38.5051 25.7458 38.7198 25.592 38.9591 25.4869C39.1983 25.3819 39.4569 25.3279 39.7182 25.3286C39.8327 25.3287 39.947 25.3388 40.0598 25.3587C39.6284 25.4382 39.2385 25.6664 38.9579 26.0036C38.6773 26.3407 38.5236 26.7655 38.5236 27.2042C38.5236 27.6428 38.6773 28.0676 38.9579 28.4047C39.2385 28.7419 39.6284 28.9701 40.0598 29.0497Z" fill="#FA3268"/>
<path d="M40.4422 27.4533C40.8421 27.4533 41.1662 27.1292 41.1662 26.7293C41.1662 26.3295 40.8421 26.0053 40.4422 26.0053C40.0423 26.0053 39.7182 26.3295 39.7182 26.7293C39.7182 27.1292 40.0423 27.4533 40.4422 27.4533Z" fill="#FC72A4"/>
<path d="M46.8166 34.5722C47.5066 34.5722 48.0659 34.0129 48.0659 33.3229C48.0659 32.6329 47.5066 32.0736 46.8166 32.0736C46.1266 32.0736 45.5673 32.6329 45.5673 33.3229C45.5673 34.0129 46.1266 34.5722 46.8166 34.5722Z" fill="#E88032"/>
<path d="M47.0443 34.5507C46.9696 34.565 46.8937 34.5722 46.8177 34.5722C46.4863 34.5722 46.1686 34.4406 45.9343 34.2063C45.7 33.972 45.5684 33.6542 45.5684 33.3229C45.5684 32.9916 45.7 32.6738 45.9343 32.4395C46.1686 32.2052 46.4863 32.0736 46.8177 32.0736C46.8937 32.0738 46.9695 32.0806 47.0443 32.094C46.7574 32.1472 46.4982 32.2992 46.3116 32.5236C46.125 32.7479 46.0228 33.0305 46.0228 33.3224C46.0228 33.6142 46.125 33.8968 46.3116 34.1212C46.4982 34.3455 46.7574 34.4975 47.0443 34.5507Z" fill="#CC6C2B"/>
<path d="M47.2989 33.4894C47.5653 33.4894 47.7813 33.2734 47.7813 33.007C47.7813 32.7407 47.5653 32.5247 47.2989 32.5247C47.0325 32.5247 46.8166 32.7407 46.8166 33.007C46.8166 33.2734 47.0325 33.4894 47.2989 33.4894Z" fill="#F29E64"/>
<path d="M32.5338 34.5722C33.2238 34.5722 33.7831 34.0129 33.7831 33.3229C33.7831 32.6329 33.2238 32.0736 32.5338 32.0736C31.8438 32.0736 31.2845 32.6329 31.2845 33.3229C31.2845 34.0129 31.8438 34.5722 32.5338 34.5722Z" fill="#AA60FA"/>
<path d="M32.7637 34.5507C32.689 34.565 32.6131 34.5722 32.537 34.5722C32.2057 34.5722 31.8879 34.4406 31.6536 34.2063C31.4193 33.972 31.2877 33.6542 31.2877 33.3229C31.2877 32.9916 31.4193 32.6738 31.6536 32.4395C31.8879 32.2052 32.2057 32.0736 32.537 32.0736C32.613 32.0738 32.6889 32.0806 32.7637 32.094C32.4768 32.1472 32.2175 32.2992 32.0309 32.5236C31.8443 32.7479 31.7422 33.0305 31.7422 33.3224C31.7422 33.6142 31.8443 33.8968 32.0309 34.1212C32.2175 34.3455 32.4768 34.4975 32.7637 34.5507Z" fill="#934CF5"/>
<path d="M33.0161 33.4894C33.2825 33.4894 33.4984 33.2734 33.4984 33.007C33.4984 32.7407 33.2825 32.5247 33.0161 32.5247C32.7497 32.5247 32.5338 32.7407 32.5338 33.007C32.5338 33.2734 32.7497 33.4894 33.0161 33.4894Z" fill="#CD88F8"/>
<path d="M46.8166 22.2756C47.5066 22.2756 48.0659 21.7163 48.0659 21.0263C48.0659 20.3363 47.5066 19.777 46.8166 19.777C46.1266 19.777 45.5673 20.3363 45.5673 21.0263C45.5673 21.7163 46.1266 22.2756 46.8166 22.2756Z" fill="#38C487"/>
<path d="M47.0443 22.2552C46.9695 22.2686 46.8937 22.2754 46.8177 22.2756C46.4863 22.2756 46.1686 22.144 45.9343 21.9097C45.7 21.6754 45.5684 21.3576 45.5684 21.0263C45.5684 20.695 45.7 20.3772 45.9343 20.1429C46.1686 19.9086 46.4863 19.777 46.8177 19.777C46.8937 19.7772 46.9695 19.784 47.0443 19.7974C46.7578 19.8512 46.499 20.0035 46.3128 20.2279C46.1266 20.4523 46.0247 20.7347 46.0247 21.0263C46.0247 21.3179 46.1266 21.6003 46.3128 21.8247C46.499 22.0491 46.7578 22.2014 47.0443 22.2552Z" fill="#00B564"/>
<path d="M47.2989 21.1928C47.5653 21.1928 47.7813 20.9769 47.7813 20.7105C47.7813 20.4441 47.5653 20.2282 47.2989 20.2282C47.0325 20.2282 46.8166 20.4441 46.8166 20.7105C46.8166 20.9769 47.0325 21.1928 47.2989 21.1928Z" fill="#4ACC97"/>
<path d="M32.5338 22.2756C33.2238 22.2756 33.7831 21.7163 33.7831 21.0263C33.7831 20.3363 33.2238 19.777 32.5338 19.777C31.8438 19.777 31.2845 20.3363 31.2845 21.0263C31.2845 21.7163 31.8438 22.2756 32.5338 22.2756Z" fill="#DB1B1B"/>
<path d="M32.7637 22.2552C32.6889 22.2686 32.613 22.2754 32.537 22.2756C32.2057 22.2756 31.8879 22.144 31.6536 21.9097C31.4193 21.6754 31.2877 21.3576 31.2877 21.0263C31.2877 20.695 31.4193 20.3772 31.6536 20.1429C31.8879 19.9086 32.2057 19.777 32.537 19.777C32.613 19.7772 32.6889 19.784 32.7637 19.7974C32.4771 19.8512 32.2184 20.0035 32.0322 20.2279C31.846 20.4523 31.7441 20.7347 31.7441 21.0263C31.7441 21.3179 31.846 21.6003 32.0322 21.8247C32.2184 22.0491 32.4771 22.2014 32.7637 22.2552Z" fill="#BA1919"/>
<path d="M33.0161 21.1928C33.2825 21.1928 33.4984 20.9769 33.4984 20.7105C33.4984 20.4441 33.2825 20.2282 33.0161 20.2282C32.7497 20.2282 32.5338 20.4441 32.5338 20.7105C32.5338 20.9769 32.7497 21.1928 33.0161 21.1928Z" fill="#E54A4A"/>
<path d="M39.7182 14.8581C39.6042 14.8581 39.4949 14.8128 39.4143 14.7323C39.3338 14.6517 39.2885 14.5424 39.2885 14.4284V11.658H14.474V14.4284C14.474 14.5424 14.4288 14.6517 14.3482 14.7323C14.2676 14.8128 14.1583 14.8581 14.0443 14.8581C13.9304 14.8581 13.8211 14.8128 13.7405 14.7323C13.6599 14.6517 13.6147 14.5424 13.6147 14.4284V11.2283C13.6147 11.1144 13.6599 11.0051 13.7405 10.9245C13.8211 10.8439 13.9304 10.7986 14.0443 10.7986H39.7182C39.8321 10.7986 39.9414 10.8439 40.022 10.9245C40.1026 11.0051 40.1479 11.1144 40.1479 11.2283V14.4284C40.1479 14.5424 40.1026 14.6517 40.022 14.7323C39.9414 14.8128 39.8321 14.8581 39.7182 14.8581ZM39.7182 44.2004H14.0443C13.9304 44.2004 13.8211 44.1551 13.7405 44.0746C13.6599 43.994 13.6147 43.8847 13.6147 43.7707V40.5706C13.6147 40.4567 13.6599 40.3474 13.7405 40.2668C13.8211 40.1862 13.9304 40.1409 14.0443 40.1409C14.1583 40.1409 14.2676 40.1862 14.3482 40.2668C14.4288 40.3474 14.474 40.4567 14.474 40.5706V43.341H39.2885V40.5706C39.2885 40.4567 39.3338 40.3474 39.4143 40.2668C39.4949 40.1862 39.6042 40.1409 39.7182 40.1409C39.8321 40.1409 39.9414 40.1862 40.022 40.2668C40.1026 40.3474 40.1479 40.4567 40.1479 40.5706V43.7707C40.1479 43.8847 40.1026 43.994 40.022 44.0746C39.9414 44.1551 39.8321 44.2004 39.7182 44.2004Z" fill="white"/>
</g>
<defs>
<clipPath id="clip0_549_1504">
<rect width="55" height="55" fill="white" transform="translate(0 -0.000427246)"/>
</clipPath>
</defs>
</svg>
