<svg width="55" height="55" viewBox="0 0 55 55" fill="none" xmlns="http://www.w3.org/2000/svg">
<path d="M39.0115 -0.000427246H15.9885C5.9785 -0.000427246 0 5.97532 0 15.9881V39.0111C0 49.0238 5.9785 54.9996 15.9885 54.9996H39.0115C49.0215 54.9996 55 49.0238 55 39.0111V15.9881C55 5.97532 49.0215 -0.000427246 39.0115 -0.000427246ZM22.352 34.3746C22.5436 34.5662 22.6956 34.7936 22.7992 35.0439C22.9029 35.2942 22.9563 35.5625 22.9563 35.8335C22.9563 36.1044 22.9029 36.3727 22.7992 36.623C22.6956 36.8733 22.5436 37.1007 22.352 37.2923C22.1604 37.4839 21.933 37.6359 21.6827 37.7396C21.4323 37.8432 21.1641 37.8966 20.8931 37.8966C20.6222 37.8966 20.3539 37.8432 20.1036 37.7396C19.8533 37.6359 19.6258 37.4839 19.4343 37.2923L12.584 30.4283C11.8107 29.6503 11.3766 28.5979 11.3766 27.5009C11.3766 26.404 11.8107 25.3516 12.584 24.5736L19.4343 17.7206C19.8212 17.3337 20.3459 17.1163 20.8931 17.1163C21.4403 17.1163 21.9651 17.3337 22.352 17.7206C22.7389 18.1075 22.9563 18.6323 22.9563 19.1794C22.9563 19.7266 22.7389 20.2514 22.352 20.6383L15.5017 27.4996L22.352 34.3746ZM42.427 30.4393L35.574 37.2923C35.3824 37.4844 35.1549 37.637 34.9044 37.7411C34.6538 37.8453 34.3852 37.8991 34.1139 37.8995C33.8426 37.8999 33.5739 37.8468 33.323 37.7434C33.0722 37.6399 32.8442 37.488 32.6521 37.2964C32.46 37.1049 32.3075 36.8773 32.2033 36.6268C32.0991 36.3763 32.0453 36.1077 32.0449 35.8364C32.0445 35.565 32.0976 35.2963 32.2011 35.0455C32.3046 34.7947 32.4564 34.5667 32.648 34.3746L39.4983 27.5271L32.648 20.6521C32.2611 20.2652 32.0437 19.7404 32.0437 19.1932C32.0437 18.646 32.2611 18.1212 32.648 17.7343C33.0349 17.3474 33.5597 17.13 34.1069 17.13C34.6541 17.13 35.1788 17.3474 35.5658 17.7343L42.416 24.5846C43.1855 25.3616 43.6174 26.4109 43.6179 27.5045C43.6185 28.5981 43.1875 29.6478 42.4187 30.4256L42.427 30.4393Z" fill="black"/>
</svg>
