<svg width="93" height="107" viewBox="0 0 93 107" fill="none" xmlns="http://www.w3.org/2000/svg">
<g filter="url(#filter0_dd_549_1437)">
<path d="M50.8114 51.3975H66.8809L46.4402 15.9996L26.0003 51.3975H42.0691" fill="#AFB9D2"/>
<path d="M50.8115 51.3973H58.649L46.4413 31.1207L34.2317 51.3973H42.0692" fill="#E4EAF7"/>
<path d="M66.8809 51.3978H26.0003L32.4581 40.2125L37.8489 30.8782L46.4401 15.9999L55.0334 30.8807L60.4229 40.2138L66.8809 51.3978Z" fill="#BEC8DC"/>
<path d="M58.6491 51.3977H34.2316L36.6239 47.4253L42.1267 38.2865L46.4411 31.1207L50.7556 38.2877L56.2577 47.4266L58.6491 51.3977Z" fill="#E4EAF7"/>
<path d="M60.4233 40.2138L53.9653 51.3978H38.9175L32.4583 40.2125L37.8492 30.8782L46.4412 45.759L55.0336 30.8807L60.4233 40.2138Z" fill="#95A5B9"/>
<path d="M56.2577 47.4266L53.9653 51.3978H38.9175L36.6238 47.4254L42.1267 38.2866L46.4412 45.759L50.7557 38.2878L56.2577 47.4266Z" fill="#BEC8DC"/>
<path d="M66.881 23.5502L46.4412 58.9483L26.0004 23.5502H34.2328L46.441 44.6933L58.6498 23.5502H66.881Z" fill="#7DE6C4"/>
<path d="M58.6498 23.5502L46.4412 44.6931L34.2329 23.5502H42.07L46.4411 31.1209L50.8127 23.5502H58.6498Z" fill="#707384"/>
<path d="M64.9118 70.9993H27.9701C26.8819 70.9993 26 70.1174 26 69.0297V57.2021C26 56.1139 26.8819 55.2324 27.9701 55.2324H64.9118C66 55.2324 66.8815 56.114 66.8815 57.2021V69.0298C66.8815 70.1174 65.9999 70.9993 64.9118 70.9993Z" fill="#B9EBFF"/>
<path d="M64.9118 55.2319H61.3132C62.4014 55.2319 63.2833 56.1138 63.2833 57.2016V69.0298C63.2833 70.1173 62.4014 70.9994 61.3132 70.9994H64.9118C66 70.9994 66.8815 70.1174 66.8815 69.0297V57.2015C66.8815 56.1139 65.9995 55.2319 64.9118 55.2319Z" fill="#A0DCF0"/>
<path d="M30.2964 59.3437C30.2964 59.1532 30.4064 58.9933 30.6262 58.8646C30.8465 58.7357 31.077 58.671 31.3178 58.671C31.625 58.671 31.8079 58.7793 31.8658 58.995L33.7717 65.7458L35.6655 58.995C35.7234 58.7793 35.9063 58.671 36.2134 58.671C36.4459 58.671 36.6746 58.7377 36.8987 58.8704C37.1228 59.0034 37.2352 59.1612 37.2352 59.3437C37.2352 59.3604 37.2269 59.402 37.21 59.4683L34.8182 67.3026C34.7687 67.4771 34.6441 67.6122 34.4447 67.7075C34.2454 67.8028 34.021 67.8506 33.7722 67.8506C33.199 67.8506 32.8503 67.668 32.7256 67.3026L30.3212 59.4683C30.3044 59.402 30.2965 59.3604 30.2965 59.3437H30.2964ZM37.484 65.3597V62.3704C37.484 62.2458 37.565 62.1296 37.727 62.0217C37.889 61.9139 38.0778 61.8597 38.2939 61.8597C38.5016 61.8597 38.6863 61.9134 38.8482 62.0213C39.0102 62.1291 39.0912 62.2449 39.0912 62.3687V65.3501C39.0912 65.6401 39.199 65.899 39.4151 66.1264C39.6313 66.3541 39.8884 66.468 40.1876 66.468C40.4863 66.468 40.7419 66.3541 40.9535 66.1264C41.1654 65.899 41.2711 65.64 41.2711 65.3501V62.3565C41.2711 62.2244 41.3521 62.1081 41.514 62.0087C41.676 61.9092 41.8649 61.8597 42.0809 61.8597C42.3134 61.8597 42.5048 61.9097 42.6541 62.009C42.8034 62.1085 42.8782 62.2252 42.8782 62.3578V65.3593C42.8782 66.032 42.6122 66.6219 42.0809 67.128C41.5493 67.6349 40.9182 67.8879 40.1872 67.8879C39.4567 67.8879 38.8235 67.6349 38.2876 67.128C37.7521 66.6219 37.484 66.0323 37.484 65.3597ZM43.8496 65.335V64.2758C43.8496 63.5952 44.1157 63.0099 44.6473 62.5197C45.1785 62.0301 45.8222 61.7849 46.5779 61.7849C47.2837 61.7849 47.888 62.0083 48.3906 62.4543C48.893 62.9007 49.1443 63.4614 49.1443 64.1374C49.1443 64.3841 49.1133 64.5873 49.0508 64.748C48.9887 64.9082 48.893 65.0211 48.7642 65.087C48.6352 65.1528 48.5171 65.194 48.4091 65.2103C48.3013 65.2272 48.1599 65.235 47.9858 65.235H45.4567V65.4219C45.4567 65.7789 45.5897 66.0675 45.8553 66.2875C46.1214 66.5074 46.4744 66.6177 46.9145 66.6177C47.2301 66.6177 47.5414 66.5389 47.8486 66.3811C48.1558 66.2233 48.355 66.1444 48.4465 66.1444C48.6211 66.1444 48.7663 66.2254 48.8825 66.3869C48.9988 66.5489 49.0571 66.7046 49.0571 66.854C49.0571 67.0864 48.8473 67.3173 48.428 67.5455C48.0084 67.7738 47.4872 67.8879 46.8645 67.8879C45.9758 67.8879 45.251 67.6534 44.6905 67.1843C44.13 66.7152 43.8496 66.0987 43.8496 65.335ZM45.4567 64.2884H47.2754C47.4084 64.2884 47.5015 64.267 47.5558 64.2247C47.6098 64.1818 47.6367 64.0988 47.6367 63.9745C47.6367 63.7031 47.531 63.482 47.319 63.3116C47.1071 63.1408 46.8474 63.0556 46.5406 63.0556C46.2498 63.0556 45.9963 63.1387 45.7807 63.3057C45.5646 63.4722 45.4567 63.6914 45.4567 63.9628V64.2884ZM49.6424 65.3723C49.6424 65.0731 49.7045 64.8679 49.8291 64.7559C49.9537 64.6439 50.1615 64.5876 50.4522 64.5876C50.9588 64.5876 51.2285 64.7579 51.2617 65.0983C51.2949 65.9871 51.7229 66.431 52.5449 66.431C53.4253 66.431 53.8654 65.9534 53.8654 64.9985V60.091H52.5948C52.437 60.091 52.3124 60.0205 52.221 59.8795C52.1296 59.7385 52.0841 59.5682 52.0841 59.3688C52.0841 59.1779 52.1278 59.0139 52.2146 58.877C52.302 58.7399 52.4286 58.6714 52.5949 58.6714H54.7747C54.9657 58.6714 55.1318 58.7172 55.2732 58.8083C55.4142 58.8997 55.4848 59.0243 55.4848 59.1821V64.9985C55.4848 65.9782 55.2212 66.6987 54.6937 67.1595C54.1663 67.6202 53.4752 67.8506 52.6196 67.8506C51.7392 67.8506 51.0229 67.6286 50.4708 67.1842C49.9186 66.7403 49.6424 66.1361 49.6424 65.3723ZM56.4939 66.3437C56.4939 66.1528 56.5665 65.9598 56.7116 65.7643C56.8569 65.5695 57.021 65.4718 57.2038 65.4718C57.3117 65.4718 57.4343 65.5233 57.5714 65.627C57.711 65.7333 57.8441 65.8478 57.9701 65.9699C58.0986 66.0949 58.2831 66.2094 58.5244 66.3127C58.7653 66.4163 59.0309 66.4679 59.3217 66.4679C59.7203 66.4679 60.0522 66.3769 60.3183 66.1944C60.5839 66.0113 60.7169 65.7416 60.7169 65.3844C60.7169 65.1356 60.6438 64.9137 60.4988 64.7181C60.3536 64.5234 60.1626 64.3615 59.9259 64.2325C59.6724 64.0957 59.4125 63.9709 59.1471 63.8587C58.8576 63.735 58.573 63.6001 58.2941 63.4543C58.0075 63.3044 57.7456 63.1366 57.5089 62.9494C57.2723 62.7627 57.0814 62.5139 56.9362 62.2021C56.7906 61.8908 56.718 61.5357 56.718 61.1371C56.718 60.6906 56.8074 60.2966 56.9857 59.9551C57.1644 59.614 57.4032 59.3483 57.702 59.1586C57.9981 58.9706 58.3217 58.8299 58.6612 58.7416C59.002 58.653 59.3628 58.6089 59.7451 58.6089C59.9611 58.6089 60.1894 58.624 60.4304 58.6534C60.6712 58.6837 60.9263 58.7328 61.1965 58.8007C61.4659 58.8691 61.6862 58.9758 61.8566 59.1205C62.027 59.2657 62.1122 59.436 62.1122 59.632C62.1122 59.817 62.0538 60.0084 61.9376 60.2056C61.8214 60.4033 61.6637 60.5018 61.4643 60.5018C61.3895 60.5018 61.1861 60.4234 60.8537 60.2651C60.5213 60.1078 60.1521 60.0285 59.7451 60.0285C59.297 60.0285 58.9499 60.1137 58.7048 60.2841C58.4598 60.4544 58.3373 60.689 58.3373 60.9877C58.3373 61.2286 58.4372 61.4384 58.6364 61.6167C58.8358 61.7955 59.083 61.9407 59.3775 62.0527C59.6725 62.1648 59.9922 62.3063 60.3368 62.4761C60.6813 62.6465 61.001 62.8311 61.2961 63.0304C61.5909 63.2298 61.8381 63.5184 62.0375 63.8961C62.2368 64.2738 62.3361 64.7161 62.3361 65.2225C62.3361 66.0744 62.0644 66.7315 61.5205 67.1938C60.9763 67.6567 60.26 67.8879 59.3712 67.8879C58.5823 67.8879 57.9055 67.7259 57.3411 67.402C56.7759 67.0785 56.4939 66.7256 56.4939 66.3437Z" fill="#54A1FF"/>
</g>
<defs>
<filter id="filter0_dd_549_1437" x="0.390519" y="0.146082" width="92.1004" height="106.219" filterUnits="userSpaceOnUse" color-interpolation-filters="sRGB">
<feFlood flood-opacity="0" result="BackgroundImageFix"/>
<feColorMatrix in="SourceAlpha" type="matrix" values="0 0 0 0 0 0 0 0 0 0 0 0 0 0 0 0 0 0 127 0" result="hardAlpha"/>
<feMorphology radius="3.6585" operator="erode" in="SourceAlpha" result="effect1_dropShadow_549_1437"/>
<feOffset dy="9.75599"/>
<feGaussianBlur stdDeviation="14.634"/>
<feColorMatrix type="matrix" values="0 0 0 0 0.0627451 0 0 0 0 0.0941176 0 0 0 0 0.156863 0 0 0 0.1 0"/>
<feBlend mode="normal" in2="BackgroundImageFix" result="effect1_dropShadow_549_1437"/>
<feColorMatrix in="SourceAlpha" type="matrix" values="0 0 0 0 0 0 0 0 0 0 0 0 0 0 0 0 0 0 127 0" result="hardAlpha"/>
<feMorphology radius="3.6585" operator="erode" in="SourceAlpha" result="effect2_dropShadow_549_1437"/>
<feOffset dy="9.75599"/>
<feGaussianBlur stdDeviation="14.634"/>
<feColorMatrix type="matrix" values="0 0 0 0 0.0627451 0 0 0 0 0.0941176 0 0 0 0 0.156863 0 0 0 0.05 0"/>
<feBlend mode="normal" in2="effect1_dropShadow_549_1437" result="effect2_dropShadow_549_1437"/>
<feBlend mode="normal" in="SourceGraphic" in2="effect2_dropShadow_549_1437" result="shape"/>
</filter>
</defs>
</svg>
