<svg width="24" height="24" viewBox="0 0 24 24" fill="none" xmlns="http://www.w3.org/2000/svg">
<path d="M3.56942 21.3517L1.69348 0.311432H22.3065L20.4285 21.3486L11.9874 23.6886L3.56942 21.3517Z" fill="#E44D26"/>
<path d="M12 21.9L18.8209 20.0089L20.4257 2.03175H12V21.9Z" fill="#F16529"/>
<path d="M12 9.83524H8.58524L8.34936 7.19262H12V4.61224H5.52917L5.59105 5.30449L6.22517 12.4158H12V9.83524ZM12 16.5371L11.9885 16.5402L9.11474 15.764L8.93117 13.7062H6.34049L6.70199 17.7579L11.9882 19.2252L12 19.2221V16.5371Z" fill="#EBEBEB"/>
<path d="M11.991 9.83524V12.4158H15.1685L14.8691 15.7625L11.991 16.5393V19.2241L17.2813 17.7579L17.3201 17.3219L17.9265 10.5282L17.9893 9.83524H17.294H11.991ZM11.991 4.61224V7.19262H18.2242L18.276 6.61287L18.3937 5.30449L18.4554 4.61224H11.991Z" fill="white"/>
</svg>
