<svg width="102" height="30" viewBox="0 0 102 30" fill="none" xmlns="http://www.w3.org/2000/svg">
<path d="M98.2398 18.3343L101.041 20.0252C100.132 21.2377 97.9574 23.318 94.1983 23.318C89.5304 23.318 86.0542 20.0475 86.0542 15.8869C86.0542 11.4596 89.5673 8.45605 93.8053 8.45605C98.0678 8.45605 100.156 11.5262 100.832 13.1837L101.2 14.0293L90.2184 18.1452C91.0537 19.6359 92.356 20.3923 94.1983 20.3923C96.0411 20.3923 97.3185 19.5691 98.2398 18.3343ZM89.6288 15.6536L96.9624 12.8946C96.5569 11.9714 95.3533 11.3152 93.9158 11.3152C92.0856 11.3152 89.5429 12.7836 89.6288 15.6536Z" fill="#363636"/>
<path d="M80.7599 0.880615H84.2975V22.6395H80.7599V0.880615Z" fill="#363636"/>
<path d="M75.183 9.03453H78.5979V22.2501C78.5979 27.7342 75.0232 29.9924 70.7975 29.9924C66.8176 29.9924 64.4223 27.5674 63.5255 25.5985L66.6578 24.4192C67.2228 25.6317 68.5864 27.0669 70.7975 27.0669C73.5122 27.0669 75.183 25.5427 75.183 22.6951V21.6272H75.0601C74.2493 22.517 72.7015 23.3179 70.7361 23.3179C66.6332 23.3179 62.8741 20.0808 62.8741 15.9094C62.8741 11.7154 66.6332 8.44507 70.7361 8.44507C72.6893 8.44507 74.2493 9.23489 75.0601 10.1026H75.183V9.03453ZM75.4285 15.9094C75.4285 13.284 73.5 11.3706 71.0432 11.3706C68.5617 11.3706 66.4735 13.284 66.4735 15.9094C66.4735 18.5011 68.5617 20.3811 71.0432 20.3811C73.5002 20.3924 75.4287 18.5011 75.4287 15.9094" fill="#363636"/>
<path d="M43.4532 15.8536C43.4532 20.1364 39.7681 23.2845 35.2475 23.2845C30.7271 23.2845 27.0418 20.1254 27.0418 15.8536C27.0418 11.5486 30.7271 8.41162 35.2475 8.41162C39.7681 8.41162 43.4532 11.5486 43.4532 15.8536ZM39.8663 15.8536C39.8663 13.1839 37.7287 11.3482 35.2475 11.3482C32.7662 11.3482 30.6287 13.1839 30.6287 15.8536C30.6287 18.5011 32.7662 20.3589 35.2475 20.3589C37.7289 20.3589 39.8663 18.5011 39.8663 15.8536Z" fill="#363636"/>
<path d="M61.3756 15.8869C61.3756 20.1698 57.6903 23.3178 53.1699 23.3178C48.6493 23.3178 44.9642 20.1696 44.9642 15.8869C44.9642 11.5819 48.6493 8.45605 53.1699 8.45605C57.6903 8.45605 61.3756 11.5709 61.3756 15.8869ZM57.7762 15.8869C57.7762 13.2173 55.6389 11.3816 53.1574 11.3816C50.6762 11.3816 48.5386 13.2173 48.5386 15.8869C48.5386 18.5344 50.6762 20.3923 53.1574 20.3923C55.6511 20.3923 57.7762 18.5234 57.7762 15.8869Z" fill="#363636"/>
<path d="M13.554 20.0586C8.40696 20.0586 4.37797 16.2986 4.37797 11.6376C4.37797 6.97668 8.40696 3.21668 13.554 3.21668C16.3303 3.21668 18.357 4.20668 19.8556 5.47489L22.3249 3.239C20.2366 1.42579 17.4481 0.0461426 13.554 0.0461426C6.50309 0.0463211 0.569824 5.25257 0.569824 11.6376C0.569824 18.0229 6.50309 23.229 13.554 23.229C17.3622 23.229 20.2366 22.0944 22.4846 19.9808C24.7939 17.8894 25.5063 14.9526 25.5063 12.572C25.5063 11.8267 25.4081 11.0592 25.2975 10.4919H13.554V13.5844H21.9194C21.6737 15.5201 20.9982 16.8438 20.0031 17.7447C18.7993 18.8461 16.8954 20.0586 13.554 20.0586Z" fill="#363636"/>
</svg>
