<svg width="24" height="24" viewBox="0 0 24 24" fill="none" xmlns="http://www.w3.org/2000/svg">
<path d="M0 12C0 15.4862 5.37262 18.3126 12 18.3126C18.6274 18.3126 24 15.4862 24 12C24 8.51381 18.6272 5.68744 12 5.68744C5.37262 5.68744 0 8.51381 0 12Z" fill="url(#paint0_radial_1_43810)"/>
<path d="M12 17.8438C18.3684 17.8438 23.5312 15.2273 23.5312 12C23.5312 8.77238 18.3684 6.15619 12 6.15619C5.63156 6.15619 0.46875 8.77238 0.46875 12C0.46875 15.2273 5.63156 17.8438 12 17.8438Z" fill="#777BB3"/>
<path d="M6.51973 12.7245C7.04341 12.7245 7.43416 12.6279 7.68148 12.4376C7.92635 12.249 8.09529 11.9225 8.18398 11.4673C8.26648 11.0417 8.23498 10.7447 8.09023 10.5842C7.94248 10.4203 7.62279 10.3372 7.14016 10.3372H6.30316L5.83948 12.7245H6.51973ZM3.78241 15.665C3.76321 15.665 3.74425 15.6607 3.7269 15.6525C3.70954 15.6443 3.69422 15.6323 3.68203 15.6175C3.66984 15.6027 3.66109 15.5853 3.6564 15.5667C3.65172 15.5481 3.65121 15.5286 3.65491 15.5098L4.88435 9.18392C4.89016 9.15435 4.90604 9.12771 4.92929 9.10853C4.95254 9.08935 4.98171 9.07882 5.01185 9.07874H7.66198C8.49485 9.07874 9.11473 9.30486 9.50454 9.75092C9.89604 10.199 10.0172 10.826 9.86398 11.6137C9.80154 11.9345 9.69429 12.2325 9.54523 12.4995C9.39006 12.7741 9.19207 13.0222 8.95873 13.2345C8.67166 13.503 8.34673 13.698 7.99366 13.8125C7.64641 13.9258 7.20016 13.9832 6.66804 13.9832H5.59479L5.28841 15.5597C5.28263 15.5893 5.26671 15.6161 5.24338 15.6353C5.22005 15.6545 5.19077 15.665 5.16054 15.665H3.78241Z" fill="black"/>
<path d="M6.41067 10.4673H7.14024C7.7228 10.4673 7.92511 10.5952 7.99392 10.6715C8.10774 10.7979 8.12949 11.0647 8.05599 11.4425C7.97367 11.8657 7.82105 12.1659 7.60224 12.3342C7.37836 12.5067 7.01386 12.5941 6.5198 12.5941H5.99742L6.41086 10.4675L6.41067 10.4673ZM7.66205 8.94855H5.01211C4.95168 8.94856 4.89313 8.96956 4.84648 9.00797C4.79983 9.04638 4.76797 9.09981 4.75636 9.15911L3.52692 15.4852C3.51966 15.5229 3.52081 15.5617 3.53029 15.5989C3.53977 15.6361 3.55735 15.6707 3.58176 15.7003C3.60617 15.7299 3.63682 15.7538 3.67152 15.7701C3.70622 15.7865 3.74411 15.7951 3.78249 15.7951H5.16061C5.22104 15.7951 5.27956 15.774 5.32618 15.7356C5.3728 15.6971 5.40461 15.6437 5.41617 15.5844L5.70211 14.1132H6.66792C7.21392 14.1132 7.67367 14.0536 8.03424 13.9362C8.40492 13.8159 8.74599 13.6117 9.04786 13.3293C9.29092 13.1079 9.49719 12.8492 9.65892 12.563C9.81474 12.2842 9.92686 11.9729 9.99174 11.6384C10.153 10.8091 10.0219 10.1452 9.60249 9.66518C9.18699 9.18949 8.53411 8.94836 7.66205 8.94836V8.94855ZM5.68149 12.8544H6.5198C7.07536 12.8544 7.48917 12.7499 7.76105 12.5403C8.03311 12.3311 8.2163 11.9816 8.31192 11.492C8.40286 11.0217 8.36142 10.6901 8.18724 10.4967C8.01267 10.3036 7.66393 10.2069 7.14024 10.2069H6.19599L5.68149 12.8544ZM7.66224 9.20843C8.45949 9.20843 9.04092 9.41786 9.40655 9.83618C9.77217 10.2547 9.88205 10.8387 9.73655 11.5886C9.67617 11.8976 9.57474 12.1799 9.43186 12.4357C9.28861 12.6918 9.10186 12.9258 8.87105 13.1382C8.5958 13.3957 8.29036 13.5792 7.9538 13.6886C7.61742 13.7981 7.1888 13.8526 6.66811 13.8526H5.48761L5.1608 15.5345H3.78267L5.0123 9.20843H7.66224Z" fill="white"/>
<path d="M13.0235 13.9832C13.0043 13.9832 12.9853 13.979 12.9679 13.9708C12.9505 13.9626 12.9352 13.9507 12.923 13.9359C12.9107 13.921 12.9019 13.9037 12.8972 13.8851C12.8925 13.8664 12.892 13.847 12.8956 13.8281L13.4394 11.0291C13.4913 10.7629 13.4786 10.572 13.4038 10.491C13.3578 10.4417 13.2202 10.359 12.8131 10.359H11.8276L11.144 13.878C11.1381 13.9076 11.1222 13.9343 11.0988 13.9535C11.0754 13.9726 11.0462 13.9831 11.0159 13.983H9.64908C9.62987 13.983 9.61091 13.9788 9.59353 13.9706C9.57615 13.9624 9.5608 13.9505 9.54856 13.9357C9.53633 13.9209 9.52751 13.9036 9.52275 13.885C9.51799 13.8664 9.51739 13.847 9.52101 13.8281L10.7506 7.50207C10.7565 7.47243 10.7724 7.44574 10.7957 7.42655C10.819 7.40737 10.8483 7.39688 10.8785 7.39688H12.2454C12.2646 7.39687 12.2836 7.4011 12.3009 7.40927C12.3183 7.41744 12.3337 7.42935 12.3459 7.44415C12.3581 7.45895 12.367 7.47627 12.3717 7.49487C12.3765 7.51347 12.3771 7.5329 12.3734 7.55176L12.0768 9.07876H13.1368C13.9443 9.07876 14.4918 9.22088 14.8108 9.51394C15.1357 9.81263 15.2373 10.2902 15.1123 10.9339L14.5402 13.878C14.5343 13.9076 14.5184 13.9343 14.4951 13.9534C14.4717 13.9726 14.4425 13.983 14.4123 13.983H13.0235V13.9832Z" fill="black"/>
<path d="M12.2457 7.26657H10.8786C10.8181 7.26658 10.7596 7.28762 10.7129 7.32606C10.6663 7.36451 10.6344 7.41798 10.6229 7.47732L9.39342 13.8032C9.38612 13.8409 9.38725 13.8797 9.39671 13.9169C9.40618 13.9542 9.42375 13.9888 9.44817 14.0184C9.47258 14.0481 9.50324 14.0719 9.53796 14.0883C9.57267 14.1047 9.61058 14.1133 9.64898 14.1133H11.016C11.0765 14.1133 11.1351 14.0923 11.1817 14.0538C11.2284 14.0154 11.2602 13.9619 11.2718 13.9026L11.935 10.4891H12.8129C13.2194 10.4891 13.3049 10.5759 13.308 10.5799C13.3328 10.6061 13.3652 10.7289 13.3116 11.0044L12.7679 13.8032C12.7606 13.8409 12.7617 13.8798 12.7712 13.917C12.7806 13.9542 12.7982 13.9889 12.8227 14.0185C12.8471 14.0481 12.8778 14.072 12.9125 14.0884C12.9473 14.1048 12.9852 14.1133 13.0236 14.1133H14.4126C14.473 14.1133 14.5316 14.0922 14.5782 14.0538C14.6248 14.0153 14.6566 13.9619 14.6682 13.9026L15.2402 10.9588C15.3743 10.2677 15.2595 9.74945 14.899 9.41813C14.5547 9.10201 13.9784 8.94845 13.1369 8.94845H12.235L12.5014 7.57688C12.5087 7.53916 12.5076 7.50028 12.4982 7.46303C12.4887 7.42579 12.4711 7.39109 12.4467 7.36144C12.4223 7.33178 12.3916 7.3079 12.3568 7.2915C12.322 7.2751 12.2841 7.26659 12.2457 7.26657ZM12.2457 7.5272L11.9189 9.2087H13.1369C13.9032 9.2087 14.4319 9.34257 14.7225 9.60995C15.0137 9.87732 15.1007 10.3103 14.9847 10.9093L14.4124 13.8529H13.0236L13.5675 11.0539C13.6294 10.7355 13.6065 10.5184 13.4991 10.4025C13.3917 10.2868 13.1629 10.2289 12.8132 10.2289H11.7203L11.016 13.8527H9.64879L10.8784 7.52663H12.2457V7.5272Z" fill="white"/>
<path d="M17.2755 12.7245C17.7992 12.7245 18.1901 12.6279 18.4376 12.4376C18.6821 12.249 18.8513 11.9225 18.94 11.4673C19.0225 11.0417 18.9911 10.7447 18.8462 10.5842C18.6985 10.4203 18.3788 10.3372 17.8961 10.3372H17.0593L16.5953 12.7245H17.2755ZM14.5388 15.665C14.5195 15.6651 14.5005 15.6608 14.4831 15.6526C14.4657 15.6445 14.4504 15.6325 14.4381 15.6177C14.4259 15.6028 14.4171 15.5854 14.4124 15.5668C14.4077 15.5481 14.4072 15.5287 14.4109 15.5098L15.6403 9.18392C15.6462 9.15429 15.6621 9.1276 15.6854 9.10841C15.7087 9.08922 15.738 9.07873 15.7682 9.07874H18.4181C19.251 9.07874 19.8709 9.30486 20.2605 9.75092C20.6522 10.199 20.7731 10.826 20.62 11.6137C20.5614 11.924 20.4539 12.223 20.3014 12.4995C20.1462 12.7741 19.9482 13.0222 19.7149 13.2345C19.428 13.503 19.1027 13.698 18.7498 13.8125C18.4026 13.9258 17.9563 13.9832 17.424 13.9832H16.351L16.0448 15.5597C16.039 15.5894 16.023 15.6161 15.9997 15.6354C15.9763 15.6546 15.947 15.6651 15.9167 15.665H14.5388Z" fill="black"/>
<path d="M17.1665 10.4673H17.8961C18.4787 10.4673 18.681 10.5952 18.7496 10.6715C18.864 10.7979 18.8853 11.0647 18.812 11.4425C18.7295 11.8657 18.5769 12.1659 18.3581 12.3342C18.134 12.5067 17.7695 12.5941 17.2757 12.5941H16.7533L17.1665 10.4673ZM18.4179 8.94855H15.768C15.7076 8.9486 15.6491 8.96962 15.6025 9.00803C15.5558 9.04644 15.524 9.09984 15.5124 9.15911L14.2828 15.4852C14.2755 15.5229 14.2767 15.5617 14.2862 15.5989C14.2957 15.6361 14.3132 15.6708 14.3377 15.7004C14.3621 15.73 14.3928 15.7538 14.4275 15.7702C14.4622 15.7866 14.5001 15.7951 14.5385 15.7951H15.9167C15.9771 15.7951 16.0356 15.774 16.0822 15.7356C16.1288 15.6971 16.1607 15.6437 16.1722 15.5844L16.4582 14.1132H17.4238C17.9696 14.1132 18.4295 14.0536 18.7899 13.9362C19.1608 13.8159 19.5018 13.6117 19.8039 13.3291C20.0469 13.1078 20.2531 12.8492 20.4148 12.563C20.5708 12.2842 20.6825 11.9729 20.7476 11.6384C20.9088 10.8091 20.778 10.1452 20.3583 9.66518C19.9428 9.18949 19.2902 8.94836 18.4177 8.94836L18.4179 8.94855ZM16.4373 12.8544H17.2755C17.8312 12.8544 18.2448 12.7499 18.5171 12.5403C18.789 12.3311 18.9723 11.9816 19.0676 11.492C19.1589 11.0217 19.1175 10.6901 18.9429 10.4967C18.7685 10.3036 18.4196 10.2069 17.8961 10.2069H16.952L16.4373 12.8544ZM18.4179 9.20843C19.215 9.20843 19.7968 9.41786 20.1622 9.83618C20.5278 10.2547 20.6379 10.8387 20.492 11.5886C20.432 11.8976 20.3304 12.1799 20.1875 12.4357C20.0445 12.6918 19.8575 12.9258 19.6265 13.1382C19.3515 13.3957 19.0458 13.5792 18.7093 13.6886C18.3731 13.7981 17.9447 13.8526 17.4238 13.8526H16.2435L15.9163 15.5345H14.5382L15.7678 9.20843H18.4179Z" fill="white"/>
<defs>
<radialGradient id="paint0_radial_1_43810" cx="0" cy="0" r="1" gradientUnits="userSpaceOnUse" gradientTransform="translate(7.20487 7.90669) scale(15.7578)">
<stop stop-color="#AEB2D5"/>
<stop offset="0.3" stop-color="#AEB2D5"/>
<stop offset="0.75" stop-color="#484C89"/>
<stop offset="1" stop-color="#484C89"/>
</radialGradient>
</defs>
</svg>
