<svg width="24" height="24" viewBox="0 0 24 24" fill="none" xmlns="http://www.w3.org/2000/svg">
<g clip-path="url(#clip0_1_43647)">
<path d="M11.8049 0.0453282C11.7614 0.0706407 11.5794 0.331828 11.3999 0.626016C10.9499 1.36477 10.9451 1.36514 10.3406 0.729141C9.94719 0.315141 9.85213 0.239391 9.72557 0.240328C9.64307 0.240703 9.539 0.268828 9.494 0.302578C9.449 0.336328 9.32225 0.604828 9.212 0.899391C8.95963 1.57439 8.94763 1.59595 8.80775 1.62314C8.7215 1.63927 8.55594 1.54683 8.15844 1.26145C7.865 1.05052 7.57719 0.878016 7.51888 0.878016C7.27682 0.878016 7.20857 1.01039 7.09325 1.70302C6.947 2.5837 6.95188 2.5807 6.158 2.22014C5.83738 2.07464 5.53363 1.95577 5.48244 1.95577C5.43107 1.95577 5.33394 2.0107 5.26682 2.07802C5.14457 2.20027 5.14438 2.20083 5.17775 2.87414L5.21113 3.5482L5.08363 3.61645C4.97075 3.67683 4.89294 3.66952 4.39288 3.5512C3.74038 3.39708 3.60238 3.4012 3.47038 3.57933L3.37363 3.70927L3.50338 4.26502C3.57463 4.57064 3.64307 4.86502 3.656 4.91883C3.66857 4.97264 3.64663 5.0587 3.60725 5.11008C3.542 5.19408 3.47282 5.20195 2.8685 5.19258C1.84625 5.17645 1.78832 5.2642 2.21038 6.18633C2.345 6.47883 2.45507 6.74508 2.45507 6.77695C2.45507 6.94533 2.32063 7.00645 1.74369 7.10077C1.42082 7.15327 1.14032 7.19639 1.12007 7.19639C1.1 7.19639 1.03944 7.24045 0.985629 7.29427C0.809941 7.46977 0.859816 7.63477 1.25807 8.19689C1.75419 8.8972 1.75344 8.90002 0.933691 9.21333C0.00162861 9.56995 -0.0173089 9.6577 0.692379 10.3308C1.35332 10.9578 1.35425 10.9486 0.605941 11.4191C0.0389412 11.775 0.0303162 11.7836 0.0158787 11.9767C-0.00155884 12.2116 0.00256613 12.2158 0.679254 12.6292C1.34863 13.038 1.34863 13.0503 0.691816 13.6717C-0.0146838 14.34 0.00706616 14.4375 0.939879 14.7894C1.75494 15.0969 1.75607 15.1006 1.259 15.8008C0.977379 16.1977 0.887566 16.3633 0.887566 16.4857C0.887566 16.715 1.007 16.7735 1.72007 16.8933C2.32119 16.9946 2.45507 17.054 2.45507 17.2198C2.45507 17.2539 2.34482 17.522 2.21 17.8155C1.79075 18.7286 1.83857 18.8045 2.83063 18.8045C3.755 18.8045 3.73044 18.7764 3.53132 19.6096C3.38132 20.2378 3.37888 20.3581 3.51482 20.4937C3.61869 20.598 3.81482 20.5863 4.42794 20.4395C4.8965 20.3278 4.97863 20.3201 5.08719 20.378L5.21094 20.4444L5.17775 21.1183C5.14438 21.792 5.14457 21.7923 5.26682 21.9148C5.33394 21.9823 5.43257 22.037 5.48525 22.037C5.53813 22.037 5.84207 21.9189 6.161 21.7738C6.95225 21.4145 6.94738 21.4115 7.09344 22.2894C7.20913 22.9852 7.27663 23.1144 7.52357 23.1144C7.58488 23.1144 7.86669 22.9494 8.14982 22.7473C8.64744 22.3923 8.77644 22.3366 8.909 22.421C8.94313 22.4426 9.07588 22.7341 9.20375 23.0688C9.39182 23.561 9.46063 23.6895 9.56544 23.7393C9.76457 23.835 9.88794 23.7581 10.3563 23.2481C10.9218 22.632 10.9451 22.635 11.4067 23.3831C11.9167 24.2092 12.0487 24.2073 12.5714 23.3664C13.0218 22.6419 13.0166 22.6423 13.6254 23.2783C14.0298 23.7001 14.1159 23.7676 14.2522 23.7676C14.3392 23.7676 14.4433 23.7348 14.4828 23.6949C14.5229 23.655 14.6553 23.36 14.7768 23.0394C14.8985 22.7188 15.0245 22.4394 15.0571 22.4188C15.1859 22.337 15.3193 22.3944 15.8161 22.7473C16.1086 22.955 16.3839 23.1148 16.4493 23.1148C16.6923 23.1148 16.7801 22.9423 16.8809 22.2645C16.9672 21.6866 16.9848 21.6311 17.0984 21.5735C17.2102 21.5169 17.2773 21.536 17.8016 21.7741C18.1205 21.9185 18.4246 22.037 18.4773 22.037C18.5302 22.037 18.6303 21.9804 18.6993 21.911L18.8253 21.7854L18.7908 21.1389C18.7576 20.522 18.7608 20.4886 18.8591 20.3996C18.9603 20.3081 18.9708 20.3085 19.5369 20.4378C20.2224 20.5944 20.3503 20.5985 20.4791 20.4697C20.6049 20.3441 20.6036 20.3163 20.4314 19.5903C20.2383 18.7755 20.2124 18.8047 21.1402 18.8047C21.7728 18.8047 21.8433 18.7955 21.9239 18.7066C22.0586 18.558 22.0265 18.3875 21.7559 17.8106C21.6193 17.52 21.5084 17.2556 21.5094 17.2228C21.5139 17.0514 21.6487 16.9927 22.2716 16.8915C22.6528 16.8298 22.9378 16.7583 22.9895 16.7115C23.1626 16.5553 23.099 16.3518 22.7039 15.7978C22.2086 15.1035 22.2108 15.0969 23.0038 14.8046C23.9533 14.4547 23.9804 14.3381 23.2698 13.6627C22.6117 13.0374 22.6113 13.0408 23.3323 12.5983C24.2038 12.0633 24.2051 11.9428 23.3476 11.4105C22.6102 10.953 22.6108 10.9593 23.2717 10.3318C23.9804 9.65808 23.9613 9.56995 23.0289 9.21333C22.2061 8.89852 22.2035 8.89083 22.7036 8.20458C23.0013 7.79583 23.0752 7.66027 23.0752 7.5202C23.0752 7.27533 22.9653 7.22058 22.2434 7.10395C21.6404 7.00645 21.5077 6.94739 21.5077 6.77583C21.5077 6.7432 21.6179 6.4807 21.7528 6.19214C22.0164 5.6272 22.0535 5.40089 21.9043 5.26589C21.824 5.19333 21.7168 5.18283 21.1417 5.19239C20.5402 5.20252 20.4633 5.19389 20.3799 5.11008C20.2888 5.01858 20.2899 5.00564 20.432 4.41164C20.6066 3.68414 20.6073 3.66633 20.4639 3.53152C20.3182 3.39464 20.2273 3.39689 19.559 3.5542C19.0721 3.66895 18.9914 3.67664 18.8808 3.61739L18.7552 3.54989L18.7899 2.87827L18.8248 2.20702L18.6991 2.08139C18.6299 2.01202 18.5321 1.95577 18.4811 1.95577C18.4304 1.95577 18.1278 2.07577 17.8093 2.2222C17.2771 2.46708 17.2199 2.48339 17.1048 2.4232C16.9901 2.3632 16.9709 2.30377 16.8729 1.70527C16.7598 1.01283 16.6897 0.878016 16.4439 0.878016C16.3856 0.878016 16.0964 1.05145 15.8015 1.26333C15.317 1.61133 15.2521 1.64433 15.1314 1.60214C15.0314 1.56727 14.9733 1.49152 14.9024 1.30233C14.8499 1.1632 14.7493 0.895078 14.6786 0.706641C14.5357 0.326391 14.456 0.241266 14.2421 0.241266C14.1226 0.241266 14.0146 0.327141 13.6271 0.729516C13.0177 1.36233 13.0156 1.36214 12.5677 0.627328C12.3886 0.333703 12.2015 0.0715782 12.1518 0.0449532C12.0399 -0.0150468 11.9081 -0.0150468 11.8049 0.0453282ZM12.3599 2.25745C12.8906 2.63508 12.6086 3.52308 11.9579 3.52308C11.3264 3.52308 11.0084 2.76239 11.4592 2.33058C11.7138 2.08683 12.0785 2.05702 12.3599 2.25745ZM11.693 4.60252C12.0408 4.7347 12.1835 4.65539 12.9778 3.89002L13.5744 3.31439L13.8269 3.34814C14.6191 3.45314 16.1945 4.14502 17.0998 4.78552C17.9315 5.37427 19.037 6.57314 19.5082 7.39739L19.6089 7.57402L19.1626 8.57977C18.917 9.13289 18.716 9.64345 18.716 9.7147C18.716 9.87933 18.824 10.1398 18.9279 10.2258C18.9718 10.2624 19.3886 10.463 19.8539 10.6717L20.6996 11.0514L20.7329 11.2666C20.7761 11.547 20.7817 12.2355 20.7427 12.431L20.7121 12.584H20.2293C19.6693 12.584 19.7126 12.534 19.6822 13.2208C19.6601 13.7188 19.5397 13.994 19.2659 14.1723C18.8203 14.4631 18.0839 14.4105 17.7716 14.0655C17.7238 14.0122 17.6306 13.7458 17.5644 13.473C17.3713 12.6753 17.1119 12.228 16.5907 11.792C16.4261 11.6546 16.2916 11.5261 16.2916 11.5066C16.2916 11.4875 16.4726 11.3351 16.6938 11.1686C17.4997 10.5611 17.9632 9.85383 18.0138 9.15352C18.1111 7.81739 17.0467 6.5722 15.4634 6.16852C15.0881 6.07289 14.9278 6.06989 10.2839 6.06989C7.64825 6.06989 5.49144 6.05264 5.49144 6.03164C5.49144 5.98233 6.07738 5.41383 6.42238 5.12864C7.37 4.34527 8.60075 3.72895 9.87557 3.39989L10.3162 3.28552L10.9424 3.92058C11.2873 4.26989 11.6249 4.57683 11.693 4.60252ZM3.80619 8.6887C4.09475 8.8777 4.21307 9.35245 4.04244 9.63783C3.779 10.0796 3.11132 10.0981 2.8475 9.6712C2.46388 9.05077 3.20282 8.29327 3.80619 8.6887ZM20.8072 8.71308C21.5621 9.1732 20.9771 10.3055 20.1689 9.94795C19.6295 9.70927 19.6121 8.97183 20.1399 8.70295C20.36 8.59045 20.6129 8.59439 20.8074 8.71289M6.0305 11.5312V14.3475H3.5405L3.44188 13.919C3.24763 13.0753 3.16588 12.2023 3.21482 11.4873L3.24894 10.985L4.10488 10.6012C4.64188 10.3606 4.98725 10.1771 5.03169 10.109C5.22632 9.81202 5.20794 9.59995 4.93457 8.99658L4.80707 8.71495H6.03013V11.5312M13.1981 8.8372C13.7311 8.97595 14.0128 9.25814 14.0135 9.65377C14.0139 9.94439 13.8701 10.1263 13.5129 10.2875C13.2601 10.4019 13.22 10.4047 11.6261 10.4203L9.99744 10.436V8.76352H11.4566C12.5962 8.76352 12.9776 8.77964 13.1981 8.8372ZM12.6479 12.8786C12.9123 12.9521 13.2247 13.1816 13.3848 13.4201C13.5532 13.6708 13.6516 13.9968 13.8849 15.0768C14.0818 15.99 14.2087 16.2881 14.5636 16.6766C15.0033 17.1577 14.9011 17.139 17.0975 17.139C18.1494 17.139 19.0096 17.1558 19.0096 17.1765C19.0096 17.2134 18.2853 18.0697 18.254 18.0697C18.245 18.0697 17.8666 17.9906 17.4133 17.8936C16.1328 17.6203 16.0867 17.6523 15.7929 19.0246L15.6039 19.9063L15.4333 19.9903C15.1486 20.1309 14.2233 20.42 13.7439 20.519C12.9511 20.6821 12.0886 20.7369 11.3306 20.673C10.0381 20.5633 8.32682 20.0619 8.25988 19.773C8.24582 19.7116 8.15957 19.3149 8.069 18.891C7.97807 18.4672 7.86763 18.0652 7.82338 17.9977C7.6115 17.6745 7.38875 17.6546 6.40832 17.8713C6.03707 17.9538 5.71307 18.0206 5.68832 18.0206C5.64182 18.0206 4.95275 17.2239 4.95275 17.1703C4.95275 17.1534 6.58925 17.1339 8.5895 17.1271L12.2261 17.1148L12.2392 15.8229C12.2486 14.9107 12.2358 14.511 12.1961 14.4635C12.1522 14.4103 11.9176 14.3964 11.069 14.3964H9.99744V12.8289L11.2344 12.8291C11.9143 12.8295 12.5506 12.8516 12.6479 12.8786ZM7.04432 18.7537C7.62257 19.1062 7.34525 20.0295 6.66125 20.0287C5.96 20.0287 5.69994 19.1137 6.2975 18.7488C6.49532 18.6283 6.84275 18.6307 7.04432 18.7537ZM17.6343 18.7923C17.9178 19.0001 18.0121 19.4323 17.8366 19.7205C17.3754 20.4768 16.2219 19.8755 16.6072 19.0794C16.7966 18.6885 17.3 18.5473 17.6343 18.7923Z" fill="black"/>
</g>
<defs>
<clipPath id="clip0_1_43647">
<rect width="24" height="24" fill="white"/>
</clipPath>
</defs>
</svg>
