<svg width="1400" height="642" viewBox="0 0 1400 642" fill="none" xmlns="http://www.w3.org/2000/svg">
<g style="mix-blend-mode:multiply">
<path d="M567.167 720C618.505 720 660.167 678.114 660.167 626.5C660.167 574.886 618.505 533 567.167 533C515.829 533 474.167 574.886 474.167 626.5C474.167 678.114 515.829 720 567.167 720Z" fill="#E8F6F1"/>
</g>
<g style="mix-blend-mode:multiply">
<path d="M-11.8332 680C92.4987 680 177.167 595.332 177.167 491C177.167 386.668 92.4987 302 -11.8332 302C-116.165 302 -200.833 386.668 -200.833 491C-200.833 595.332 -116.165 680 -11.8332 680Z" fill="#E8F6F1"/>
</g>
<g style="mix-blend-mode:multiply">
<path d="M-87.3571 184.135C-87.3571 184.135 184.807 46.0847 472.292 205.165C299.203 66.7296 54.7748 -79.5607 -227 -117.419C-227 -117.419 494.625 -114.729 747.325 468.669C747.325 468.669 477.367 155.176 -87.3571 184.135Z" fill="#E8F6F1"/>
</g>
<g style="mix-blend-mode:multiply">
<path d="M1486.65 455.865C1486.65 455.865 1214.49 593.915 927.004 434.835C1100.09 573.27 1344.52 719.561 1626.3 757.419C1626.3 757.419 904.671 754.729 651.971 171.331C651.971 171.331 921.929 484.824 1486.65 455.865Z" fill="#E8F6F1"/>
</g>
<g style="mix-blend-mode:multiply">
<path d="M805 115C862.962 115 910 68.1861 910 10.5C910 -47.1862 862.962 -94 805 -94C747.038 -94 700 -47.1862 700 10.5C700 68.1861 747.038 115 805 115Z" fill="#E8F6F1"/>
</g>
<g style="mix-blend-mode:multiply">
<path d="M1385.67 347C1474.27 347 1546.17 275.099 1546.17 186.5C1546.17 97.9006 1474.27 26 1385.67 26C1297.07 26 1225.17 97.9006 1225.17 186.5C1225.17 275.099 1297.07 347 1385.67 347Z" fill="#E8F6F1"/>
</g>
</svg>
